<svg width="154" height="39" viewBox="0 0 154 39" fill="none" xmlns="http://www.w3.org/2000/svg">
<g clip-path="url(#clip0_349_43)">
<path d="M60.2609 13.9925H65.0892V29.1637H60.2609V13.9925ZM66.097 13.9925H70.7476V16.0669H70.8359C71.9626 14.4363 73.4131 13.5486 75.5171 13.5486C78.8348 13.5486 80.7893 15.9186 80.7893 19.2964V29.1626H75.9609V20.2736C75.9609 18.6736 75.1615 17.5786 73.5909 17.5786C71.992 17.5786 70.9254 18.9114 70.9254 20.7775V29.1626H66.097V13.9925ZM65.5716 9.93411C65.5716 9.16575 65.2664 8.42885 64.723 7.88554C64.1797 7.34222 63.4428 7.03699 62.6745 7.03699C61.9061 7.03699 61.1692 7.34222 60.6259 7.88554C60.0826 8.42885 59.7773 9.16575 59.7773 9.93411C59.7773 10.7025 60.0826 11.4394 60.6259 11.9827C61.1692 12.526 61.9061 12.8312 62.6745 12.8312C63.4428 12.8312 64.1797 12.526 64.723 11.9827C65.2664 11.4394 65.5716 10.7025 65.5716 9.93411ZM114.746 13.7739C114.587 13.7608 114.426 13.7548 114.266 13.7558C112.429 13.7558 111.185 14.5564 110.118 16.3636H110.03V13.9936H105.409V29.1637H110.237V22.3492C110.237 19.1911 111.986 17.7281 114.746 17.9829V13.7739ZM138.441 19.5931C136.516 19.2375 134.797 19.0892 134.797 18.0225C134.797 17.0736 135.716 16.6297 136.901 16.6297C138.234 16.6297 139.152 17.0442 139.33 18.4075H143.773C143.536 15.4147 141.225 13.5486 136.93 13.5486C133.346 13.5486 130.384 15.2075 130.384 18.4075C130.384 21.9631 133.198 22.6742 135.834 23.1181C137.849 23.4737 139.685 23.622 139.685 24.9853C139.685 25.9626 138.767 26.4959 137.315 26.4959C135.859 26.4959 134.896 25.8799 134.601 24.6298H130C130.339 27.7483 133.076 29.6371 137.345 29.6371C141.315 29.6371 144.246 27.9181 144.246 24.6003C144.246 20.7186 141.106 20.037 138.441 19.5931ZM122.237 16.9853C123.806 16.9853 124.932 18.1403 125.11 19.9486H119.126C119.452 18.1403 120.4 16.9853 122.237 16.9853ZM122.503 26.1403C120.518 26.1403 119.392 24.8665 119.097 22.8226H129.997C130.027 19.7403 129.138 17.1042 127.331 15.4441C126.028 14.2597 124.31 13.5486 122.147 13.5486C117.526 13.5486 114.357 17.0147 114.357 21.5487C114.357 26.1403 117.438 29.6076 122.444 29.6076C124.369 29.6076 125.909 29.1037 127.183 28.2148C128.516 27.2965 129.405 25.9931 129.731 24.6298H125.021C124.606 25.5776 123.777 26.1403 122.503 26.1403ZM152.75 25.5855C152.526 25.5946 152.226 25.6081 151.95 25.6081C150.914 25.6081 150.261 25.3115 150.261 24.1248V17.0136H152.75V13.9925H150.261V9.19242H145.552V13.9925H144.07V17.0147H145.552V25.1631C145.552 28.422 147.566 29.3415 150.38 29.3415C151.454 29.3415 152.266 29.26 152.75 29.166V25.5855ZM89.411 25.5923C89.2185 25.6002 88.9966 25.607 88.7882 25.607C87.7521 25.607 87.101 25.3103 87.101 24.1259V17.0147H89.411V13.9925H87.101V9.19242H82.3904V13.9925H80.8199V17.0147H82.3904V25.1631C82.3904 28.422 84.4049 29.3415 87.2188 29.3415C88.17 29.3415 88.9173 29.277 89.411 29.1966V25.5923Z" fill="#C63737"/>
<path d="M99.9275 19.9487C99.7486 18.1403 98.6241 16.9853 97.0535 16.9853C95.2169 16.9853 94.2691 18.1403 93.9441 19.9487H99.9275ZM89.1746 21.5487C89.1746 17.0148 92.3441 13.5487 96.9652 13.5487C99.128 13.5487 100.846 14.2598 102.149 15.4442C103.956 17.1042 104.844 19.7404 104.815 22.8226H93.9147C94.2102 24.8665 95.3358 26.1404 97.3208 26.1404C98.5947 26.1404 99.4236 25.5776 99.838 24.6299H104.549C104.222 25.9921 103.334 27.2966 102.001 28.2149C100.727 29.1038 99.1869 29.6077 97.2608 29.6077C92.2558 29.6077 89.1746 26.1404 89.1746 21.5487ZM51.8749 17.9343C53.7705 17.9343 54.8372 16.8076 54.8372 15.1192C54.8372 13.4298 53.741 12.3937 51.8749 12.3937H48.1721V17.9343H51.8749ZM43.2838 7.97861H51.6677C54.2449 7.97861 56.1405 8.68973 57.4438 9.93419C58.8072 11.2081 59.5772 13.0153 59.5772 15.1487C59.5772 19.2082 56.7633 22.0821 52.4083 22.0821H48.171V29.1638H43.2838V7.97861ZM18.4263 0.973877C8.35634 0.973877 0.194336 9.13588 0.194336 19.2059C0.194336 26.9308 5.00004 33.5347 11.7817 36.1912C11.622 34.7497 11.4782 32.5303 11.844 30.9552C12.1758 29.5318 13.9819 21.8918 13.9819 21.8918C13.9819 21.8918 13.4372 20.7991 13.4372 19.1855C13.4372 16.649 14.9059 14.7557 16.7357 14.7557C18.2905 14.7557 19.0423 15.9243 19.0423 17.3251C19.0423 18.8888 18.0459 21.2283 17.5318 23.3956C17.1026 25.2108 18.4422 26.6907 20.2313 26.6907C23.4721 26.6907 25.9622 23.2733 25.9622 18.3408C25.9622 13.9756 22.8255 10.9227 18.3482 10.9227C13.1609 10.9227 10.116 14.8146 10.116 18.8356C10.116 20.4028 10.7196 22.0832 11.4726 22.997C11.622 23.1782 11.6436 23.3367 11.5994 23.5202C11.4612 24.0954 11.1532 25.3342 11.0932 25.5878C11.014 25.9219 10.8294 25.9921 10.4829 25.8313C8.20687 24.7714 6.7835 21.4423 6.7835 18.7677C6.7835 13.0153 10.9619 7.73289 18.8283 7.73289C25.1514 7.73289 30.0658 12.2408 30.0658 18.2638C30.0658 24.5483 26.1048 29.6066 20.6061 29.6066C18.7604 29.6066 17.0234 28.6463 16.4277 27.5117C16.4277 27.5117 15.5151 30.9937 15.2931 31.8475C14.881 33.4305 13.7701 35.4167 13.0273 36.6271C14.7755 37.168 16.5953 37.4421 18.4252 37.4402C28.4918 37.4402 36.6538 29.2759 36.6538 19.2059C36.6538 9.13588 28.4941 0.973877 18.4252 0.973877H18.4263Z" fill="#C63737"/>
</g>
<defs>
<clipPath id="clip0_349_43">
<rect width="154" height="39" fill="white"/>
</clipPath>
</defs>
</svg>
