<svg width="40" height="40" viewBox="0 0 40 40" fill="none" xmlns="http://www.w3.org/2000/svg">
<path d="M27.2301 0.285948C27.9967 0.0121721 28.6902 -0.0608349 29.4244 0.0486756C30.0449 0.141962 30.7506 0.399515 31.3509 0.616508C34.8938 1.89616 37.6478 4.65014 38.9295 8.19504C39.1465 8.79329 39.404 9.50105 39.4973 10.1216C39.6068 10.8557 39.5338 11.5493 39.258 12.3159C38.6678 13.9606 37.3436 14.6947 35.8855 15.5039L33.0098 17.108C31.9715 17.688 31.284 18.0713 30.7932 18.4099C30.3187 18.7385 30.1828 18.925 30.126 19.0345C30.0976 19.0913 30.0064 19.3732 30.0287 20.2818C30.053 21.1396 30.1625 22.3057 30.3227 23.9625C30.5803 26.6354 30.1382 29.2859 28.5949 31.752C28.3353 32.1697 28.0068 32.6929 27.6418 33.0823C27.2098 33.5427 26.7109 33.8692 26.0701 34.1287C25.4191 34.3924 24.8249 34.4999 24.1841 34.4715C23.6385 34.4471 23.0119 34.3052 22.4907 34.1855C19.1141 33.419 15.8714 31.6445 13.1195 29.292L3.46226 38.9513C2.66932 39.7422 1.38561 39.7422 0.594703 38.9513C-0.198234 38.1583 -0.198234 36.8746 0.594703 36.0837L10.2499 26.4265C7.89743 23.6746 6.12498 20.4298 5.36044 17.0553C5.24079 16.5341 5.09883 15.9074 5.07449 15.3619C5.0461 14.7211 5.15358 14.1269 5.41925 13.4739C5.67883 12.833 6.0033 12.3362 6.46365 11.9042C6.85505 11.5392 7.37827 11.2106 7.79603 10.9511C10.2276 9.4321 12.8538 8.96161 15.5064 9.19686C17.2018 9.34693 18.3962 9.45238 19.2744 9.47064C19.7083 9.47875 20.2579 9.51525 20.5439 9.36721C20.6493 9.31245 20.8339 9.17658 21.1644 8.69798C21.5031 8.20721 21.8884 7.5177 22.4704 6.47532L24.0401 3.66049C24.8513 2.20035 25.5854 0.878116 27.2301 0.285948Z" fill="#1D1EE3"/>
</svg>
