<svg width="60" height="60" viewBox="0 0 60 60" fill="none" xmlns="http://www.w3.org/2000/svg">
<g clip-path="url(#clip0_390_9)">
<rect width="60" height="60" rx="30" fill="white"/>
<mask id="mask0_390_9" style="mask-type:alpha" maskUnits="userSpaceOnUse" x="16" y="16" width="28" height="28">
<g clip-path="url(#clip1_390_9)">
<path d="M29.0665 18.8C23.4021 18.8 18.7998 23.364 18.7998 29.007C18.7998 34.6499 23.4021 39.2139 29.0665 39.2139C31.5305 39.2139 33.7947 38.3496 35.5643 36.9104L39.6085 40.9284C39.9743 41.2924 40.5651 41.2906 40.9282 40.9247C41.2922 40.5588 41.2903 39.968 40.9245 39.605L36.8999 35.6056C38.4166 33.8276 39.3331 31.5232 39.3331 29.007C39.3331 23.364 34.7309 18.8 29.0665 18.8Z" fill="black"/>
</g>
</mask>
<g mask="url(#mask0_390_9)">
<rect x="16" y="16" width="28" height="28" fill="#1D1EE3"/>
</g>
<rect x="0.5" y="0.5" width="59" height="59" rx="29.5" stroke="black" stroke-opacity="0.07"/>
</g>
<defs>
<clipPath id="clip0_390_9">
<rect width="60" height="60" rx="30" fill="white"/>
</clipPath>
<clipPath id="clip1_390_9">
<rect width="28" height="28" fill="white" transform="translate(16 16)"/>
</clipPath>
</defs>
</svg>
