<svg width="60" height="60" viewBox="0 0 60 60" fill="none" xmlns="http://www.w3.org/2000/svg">
<g clip-path="url(#clip0_390_17)">
<rect width="60" height="60" rx="30" fill="white"/>
<mask id="mask0_390_17" style="mask-type:alpha" maskUnits="userSpaceOnUse" x="16" y="16" width="28" height="28">
<g clip-path="url(#clip1_390_17)">
<path d="M42.7995 29.8171L39.0484 26.066C38.691 25.7086 38.803 25.3278 39.2948 25.2167C39.2948 25.2167 39.7018 25.1243 40.203 24.624C41.2782 23.5488 41.2772 21.8035 40.203 20.7302C39.1268 19.655 37.3834 19.655 36.3082 20.7302C35.807 21.2314 35.7155 21.6374 35.7155 21.6374C35.6044 22.1302 35.2218 22.2412 34.8662 21.8828L31.1151 18.1346C30.7586 17.7771 30.1734 17.7771 29.8168 18.1346L26.0667 21.8847C25.7102 22.2422 25.8212 22.6248 26.3131 22.735C26.3131 22.735 26.72 22.8264 27.2212 23.3267C28.2946 24.4019 28.2964 26.1463 27.2212 27.2215C26.146 28.2967 24.4007 28.2958 23.3264 27.2215C22.8262 26.7203 22.7347 26.3134 22.7347 26.3134C22.6236 25.8206 22.241 25.7104 21.8844 26.067L18.1343 29.818C17.7768 30.1746 17.7768 30.7588 18.1343 31.1154L21.8844 34.8655C22.241 35.222 22.1299 35.6047 21.638 35.7158C21.638 35.7158 21.2311 35.8082 20.7299 36.3084C19.6547 37.3846 19.6547 39.128 20.7299 40.2032C21.8051 41.2775 23.5486 41.2784 24.6247 40.2032C25.1259 39.702 25.2164 39.296 25.2164 39.296C25.3275 38.8023 25.7102 38.6922 26.0667 39.0506L29.8168 42.7988C30.1734 43.1563 30.7586 43.1563 31.1151 42.7988L34.8662 39.0487C35.2236 38.6922 35.1116 38.3086 34.6198 38.1994C34.6198 38.1994 34.2119 38.107 33.7116 37.6076C32.6355 36.5315 32.6364 34.788 33.7116 33.7119C34.7868 32.6367 36.5303 32.6358 37.6064 33.7119C38.1067 34.2131 38.1972 34.62 38.1972 34.62C38.3092 35.1138 38.691 35.2248 39.0484 34.8674L42.7995 31.1163C43.1551 30.7579 43.1551 30.1746 42.7995 29.8171Z" fill="black"/>
</g>
</mask>
<g mask="url(#mask0_390_17)">
<rect x="16" y="16" width="28" height="28" fill="#1D1EE3"/>
</g>
<rect x="0.5" y="0.5" width="59" height="59" rx="29.5" stroke="black" stroke-opacity="0.07"/>
</g>
<defs>
<clipPath id="clip0_390_17">
<rect width="60" height="60" rx="30" fill="white"/>
</clipPath>
<clipPath id="clip1_390_17">
<rect width="28" height="28" fill="white" transform="translate(16 16)"/>
</clipPath>
</defs>
</svg>
