<svg width="60" height="60" viewBox="0 0 60 60" fill="none" xmlns="http://www.w3.org/2000/svg">
<g clip-path="url(#clip0_390_25)">
<rect width="60" height="60" rx="30" fill="white"/>
<mask id="mask0_390_25" style="mask-type:alpha" maskUnits="userSpaceOnUse" x="16" y="16" width="28" height="28">
<g clip-path="url(#clip1_390_25)">
<path d="M42.0005 18.2251C41.9781 18.1234 41.8987 18.0441 41.8035 18.0161C38.507 17.2115 30.8966 20.0825 26.7731 24.2097C26.0367 24.9414 25.3675 25.7357 24.7711 26.5803C23.4999 26.4674 22.2287 26.5635 21.1433 27.0358C18.0829 28.3817 17.1943 31.9003 16.9405 33.4095C16.8901 33.7026 17.087 33.9845 17.3857 34.0349C17.4361 34.0405 17.4865 34.0461 17.5369 34.0405L22.4481 33.5001C22.4537 33.8715 22.4761 34.243 22.5153 34.6089C22.5377 34.8627 22.6562 35.1045 22.8363 35.2846L24.7375 37.1821C24.9167 37.3622 25.1594 37.4807 25.4123 37.5031C25.7782 37.5423 26.1431 37.5647 26.5146 37.5703L25.9751 42.4806C25.9406 42.7783 26.1599 43.049 26.4586 43.077C26.509 43.0826 26.5594 43.0826 26.6051 43.0714C28.1125 42.8297 31.633 41.9402 32.9723 38.877C33.4446 37.7897 33.5407 36.5231 33.4334 35.2566C34.2827 34.6593 35.0761 33.9845 35.8069 33.2518C39.9415 29.1367 42.7938 21.6869 42.0005 18.2251ZM35.4923 28.3369C34.4405 29.3897 32.7306 29.3953 31.6787 28.3369C30.6213 27.2841 30.6213 25.5723 31.6787 24.5139C32.7306 23.4555 34.4405 23.4555 35.4979 24.5139C36.5498 25.5723 36.5498 27.2841 35.4923 28.3369Z" fill="black"/>
<path d="M24.6092 38.5549C24.3002 38.8648 23.8046 38.9833 23.2092 39.0897C21.8698 39.3156 20.6892 38.161 20.9309 36.8096C21.0205 36.2972 21.2968 35.5766 21.4648 35.4077C21.5609 35.3125 21.5665 35.1548 21.4704 35.0586C21.4144 35.0026 21.3416 34.9746 21.2622 34.9858C20.5146 35.0754 19.8165 35.4189 19.2882 35.9481C17.961 37.2772 17.8369 42.1921 17.8369 42.1921C17.8369 42.1921 22.7528 42.0689 24.0753 40.7398C24.6092 40.205 24.947 39.5125 25.0366 38.7574C25.059 38.5269 24.7725 38.386 24.6092 38.5549Z" fill="black"/>
</g>
</mask>
<g mask="url(#mask0_390_25)">
<rect x="16" y="16" width="28" height="28" fill="#1D1EE3"/>
</g>
<rect x="0.5" y="0.5" width="59" height="59" rx="29.5" stroke="black" stroke-opacity="0.07"/>
</g>
<defs>
<clipPath id="clip0_390_25">
<rect width="60" height="60" rx="30" fill="white"/>
</clipPath>
<clipPath id="clip1_390_25">
<rect width="28" height="28" fill="white" transform="translate(16 16)"/>
</clipPath>
</defs>
</svg>
