<svg width="71" height="71" viewBox="0 0 71 71" fill="none" xmlns="http://www.w3.org/2000/svg">
<mask id="mask0_375_5" style="mask-type:alpha" maskUnits="userSpaceOnUse" x="0" y="0" width="71" height="71">
<rect width="71" height="71" fill="#D9D9D9"/>
</mask>
<g mask="url(#mask0_375_5)">
<path d="M29.5827 47.3333L47.3327 35.5L29.5827 23.6667V47.3333ZM35.4993 65.0833C31.407 65.0833 27.5612 64.3068 23.9618 62.7536C20.3625 61.2005 17.2316 59.0927 14.5691 56.4302C11.9066 53.7677 9.79883 50.6368 8.2457 47.0375C6.69258 43.4382 5.91602 39.5924 5.91602 35.5C5.91602 33.3799 6.13789 31.2967 6.58164 29.2505C7.02539 27.2043 7.66636 25.2198 8.50456 23.2969L13.09 27.8823C12.6955 29.1642 12.3874 30.4339 12.1655 31.6912C11.9436 32.9484 11.8327 34.2181 11.8327 35.5C11.8327 42.1069 14.1254 47.7031 18.7108 52.2885C23.2962 56.874 28.8924 59.1667 35.4993 59.1667C42.1063 59.1667 47.7025 56.874 52.2879 52.2885C56.8733 47.7031 59.166 42.1069 59.166 35.5C59.166 28.8931 56.8733 23.2969 52.2879 18.7115C47.7025 14.126 42.1063 11.8333 35.4993 11.8333C34.1681 11.8333 32.8738 11.9443 31.6165 12.1662C30.3592 12.388 29.1143 12.6962 27.8816 13.0906L23.3702 8.57917C25.3424 7.69167 27.3146 7.02605 29.2868 6.5823C31.2591 6.13855 33.3299 5.91667 35.4993 5.91667C39.5917 5.91667 43.4375 6.69323 47.0368 8.24636C50.6362 9.79948 53.7671 11.9073 56.4296 14.5698C59.0921 17.2323 61.1999 20.3632 62.753 23.9625C64.3061 27.5618 65.0827 31.4076 65.0827 35.5C65.0827 39.5924 64.3061 43.4382 62.753 47.0375C61.1999 50.6368 59.0921 53.7677 56.4296 56.4302C53.7671 59.0927 50.6362 61.2005 47.0368 62.7536C43.4375 64.3068 39.5917 65.0833 35.4993 65.0833ZM16.2702 20.7083C15.0375 20.7083 13.9898 20.2769 13.127 19.4141C12.2641 18.5512 11.8327 17.5035 11.8327 16.2708C11.8327 15.0382 12.2641 13.9905 13.127 13.1276C13.9898 12.2648 15.0375 11.8333 16.2702 11.8333C17.5028 11.8333 18.5506 12.2648 19.4134 13.1276C20.2763 13.9905 20.7077 15.0382 20.7077 16.2708C20.7077 17.5035 20.2763 18.5512 19.4134 19.4141C18.5506 20.2769 17.5028 20.7083 16.2702 20.7083Z" fill="#5F5D5D"/>
</g>
</svg>
